<svg width="155" height="155" viewBox="0 0 155 155" fill="none" xmlns="http://www.w3.org/2000/svg">
<rect x="2" y="2" width="151" height="151" rx="8" fill="white" stroke="#337AB7" stroke-width="4"/>
<path d="M47 77.5C47 77.0496 47.1785 76.6177 47.4961 76.2998C47.8136 75.982 48.2442 75.8037 48.6924 75.8037L101.225 75.8037L97.8145 72.3906L84.4228 58.9863L84.3984 58.9619L84.3721 58.9375C84.2057 58.7823 84.0721 58.5949 83.9795 58.3867C83.8869 58.1786 83.837 57.9535 83.833 57.7256C83.829 57.4979 83.8709 57.2717 83.9561 57.0605C84.0413 56.8493 84.1683 56.657 84.3291 56.4961C84.4898 56.3352 84.6811 56.2082 84.8916 56.123C85.102 56.038 85.3279 55.9961 85.5547 56C85.7817 56.004 86.0064 56.054 86.2139 56.1465C86.4212 56.239 86.6077 56.3727 86.7627 56.5391L86.8115 56.5898L106.504 76.3008C106.821 76.6186 107 77.05 107 77.5C107 77.95 106.821 78.3814 106.504 78.6992L86.8115 98.4102L86.7627 98.4609C86.6077 98.6274 86.4212 98.761 86.2139 98.8535C86.0064 98.946 85.7817 98.996 85.5547 99C85.3279 99.0039 85.102 98.962 84.8916 98.877C84.6811 98.7918 84.4898 98.6648 84.3291 98.5039C84.1683 98.343 84.0413 98.1507 83.9561 97.9395C83.8709 97.7283 83.829 97.5021 83.833 97.2744C83.837 97.0465 83.8869 96.8214 83.9795 96.6133C84.0721 96.4051 84.2057 96.2177 84.3721 96.0625L84.3984 96.0381L84.4229 96.0137L97.8145 82.6094L101.225 79.1963L48.6924 79.1963C48.2442 79.1963 47.8136 79.018 47.4961 78.7002C47.1785 78.3823 47 77.9504 47 77.5Z" fill="#337AB7" stroke="#337AB7" stroke-width="4"/>
</svg>
