<svg width="19" height="16" viewBox="0 0 19 16" fill="none" xmlns="http://www.w3.org/2000/svg">
<path d="M11.373 15.7637L19 8.03942L11.373 0.315174C11.3041 0.22404 11.2166 0.14888 11.1164 0.094783C11.0162 0.0406865 10.9056 0.00891606 10.7921 0.00162228C10.6787 -0.00567151 10.565 0.0116821 10.4587 0.0525077C10.3525 0.0933333 10.2562 0.156678 10.1764 0.238253C10.0966 0.319829 10.0351 0.417731 9.9961 0.525331C9.9571 0.632931 9.9415 0.747717 9.95036 0.861919C9.95922 0.97612 9.99233 1.08707 10.0475 1.18726C10.1026 1.28745 10.1784 1.37454 10.2698 1.44263L15.9762 7.23981L0.793651 7.23981C0.583162 7.23981 0.381294 7.32405 0.232456 7.47401C0.0836178 7.62396 -3.42144e-07 7.82735 -3.51414e-07 8.03942C-3.60684e-07 8.25149 0.0836178 8.45487 0.232456 8.60483C0.381294 8.75479 0.583162 8.83903 0.793651 8.83903L15.9762 8.83903L10.2698 14.6362C10.1214 14.7868 10.0385 14.9906 10.0392 15.2028C10.04 15.415 10.1244 15.6182 10.2738 15.7677C10.4233 15.9172 10.6255 16.0007 10.8361 16C11.0467 15.9992 11.2484 15.9142 11.3968 15.7637L11.373 15.7637Z" fill="#337AB7"/>
</svg>
