<svg width="155" height="155" viewBox="0 0 155 155" fill="none" xmlns="http://www.w3.org/2000/svg">
<rect width="155" height="155" rx="10" fill="#337AB7"/>
<path d="M96.3995 73.804L83.0081 60.4C82.6453 60.0616 82.3543 59.6536 82.1525 59.2002C81.9507 58.7468 81.8422 58.2574 81.8334 57.7612C81.8247 57.2649 81.9159 56.772 82.1016 56.3118C82.2873 55.8515 82.5637 55.4335 82.9144 55.0825C83.265 54.7316 83.6826 54.4549 84.1424 54.269C84.6022 54.0831 85.0947 53.9918 85.5905 54.0006C86.0863 54.0093 86.5752 54.1179 87.0282 54.32C87.4811 54.522 87.8888 54.8132 88.2268 55.1763L107.92 74.8882C108.612 75.5812 109 76.5206 109 77.5C109 78.4794 108.612 79.4188 107.92 80.1118L88.2268 99.8237C87.8888 100.187 87.4811 100.478 87.0282 100.68C86.5752 100.882 86.0863 100.991 85.5905 100.999C85.0947 101.008 84.6022 100.917 84.1424 100.731C83.6826 100.545 83.265 100.268 82.9144 99.9175C82.5637 99.5665 82.2873 99.1485 82.1016 98.6882C81.9159 98.228 81.8247 97.7351 81.8334 97.2388C81.8422 96.7426 81.9507 96.2532 82.1525 95.7998C82.3543 95.3464 82.6453 94.9384 83.0081 94.6L96.3995 81.196L48.6925 81.196C47.7132 81.196 46.774 80.8066 46.0815 80.1134C45.389 79.4203 45 78.4802 45 77.5C45 76.5198 45.389 75.5797 46.0815 74.8866C46.774 74.1934 47.7132 73.804 48.6925 73.804L96.3995 73.804Z" fill="white"/>
</svg>
