<svg width="38" height="40" viewBox="0 0 38 40" fill="none" xmlns="http://www.w3.org/2000/svg">
<path fill-rule="evenodd" clip-rule="evenodd" d="M32.7288 0.268296C33.1443 0.0183764 33.6404 -0.0608885 34.1131 0.0471374C34.5857 0.155163 34.9982 0.442081 35.2638 0.847671L37.1201 3.67892C37.362 4.04879 37.4656 4.49225 37.4124 4.93102C37.3592 5.3698 37.1528 5.77569 36.8294 6.07705L36.8238 6.08455L36.7976 6.10892L36.6907 6.2083L36.2688 6.61142C33.9345 8.87579 31.6709 11.2119 29.4813 13.6164C25.3619 18.1464 20.4701 24.0752 17.1776 29.8277C16.2588 31.4327 14.0144 31.7777 12.6832 30.392L0.523805 17.7583C0.349552 17.5772 0.213491 17.3629 0.12371 17.1281C0.0339292 16.8934 -0.00773912 16.643 0.00118146 16.3918C0.010102 16.1406 0.0694295 15.8938 0.175638 15.666C0.281846 15.4382 0.432767 15.2341 0.619429 15.0658L4.29443 11.7508C4.61738 11.4596 5.03149 11.2898 5.46589 11.2703C5.90028 11.2508 6.32794 11.3829 6.67568 11.6439L12.8801 16.2958C22.5719 6.73892 28.0676 3.07142 32.7288 0.268296Z" fill="#015AAA"/>
</svg>
