<svg width="360" height="360" viewBox="0 0 360 360" fill="none" xmlns="http://www.w3.org/2000/svg">
<circle cx="180" cy="180" r="180" fill="white"/>
<path d="M122.412 284C116.653 284 111.725 281.955 107.627 277.866C103.53 273.776 101.478 268.854 101.471 263.1V242.2H91V221.3H101.471V189.95H91V169.05H101.471V137.7H91V116.8H101.471V95.9C101.471 90.1525 103.523 85.234 107.627 81.1446C111.732 77.0552 116.66 75.007 122.412 75H248.059C253.818 75 258.749 77.0482 262.854 81.1446C266.958 85.241 269.007 90.1595 269 95.9V263.1C269 268.847 266.951 273.769 262.854 277.866C258.756 281.962 253.825 284.007 248.059 284H122.412ZM159.059 231.75H174.765V189.95C179.302 188.731 183.054 186.251 186.021 182.51C188.987 178.768 190.471 174.543 190.471 169.834V127.25H180V166.699H172.147V127.25H161.676V166.699H153.824V127.25H143.353V169.834C143.353 174.536 144.836 178.762 147.803 182.51C150.77 186.258 154.522 188.738 159.059 189.95V231.75ZM216.647 231.75H232.353V127.25C223.627 127.25 216.211 130.298 210.103 136.394C203.995 142.49 200.941 149.892 200.941 158.6V189.95H216.647V231.75Z" fill="#337AB7"/>
</svg>
