<svg width="360" height="360" viewBox="0 0 360 360" fill="none" xmlns="http://www.w3.org/2000/svg">
<circle cx="180" cy="180" r="180" fill="white"/>
<path d="M85 103.934C85.0174 101.439 86.0156 99.0507 87.7789 97.2856C89.5422 95.5205 91.9291 94.5199 94.424 94.5H265.576C270.782 94.5 275 98.7275 275 103.934V256.066C274.983 258.561 273.984 260.949 272.221 262.714C270.458 264.48 268.071 265.48 265.576 265.5H94.424C91.9237 265.497 89.5267 264.502 87.7596 262.734C85.9926 260.965 85 258.567 85 256.066V103.934ZM166.909 145.942C166.337 145.561 165.673 145.342 164.986 145.308C164.3 145.274 163.617 145.428 163.011 145.751C162.404 146.075 161.897 146.557 161.543 147.146C161.189 147.735 161.001 148.409 161 149.096V210.904C161.001 211.591 161.189 212.265 161.543 212.854C161.897 213.443 162.404 213.925 163.011 214.249C163.617 214.572 164.3 214.726 164.986 214.692C165.673 214.658 166.337 214.439 166.909 214.058L213.26 183.164C213.781 182.817 214.208 182.346 214.504 181.794C214.799 181.243 214.954 180.626 214.954 180C214.954 179.374 214.799 178.757 214.504 178.206C214.208 177.654 213.781 177.183 213.26 176.836L166.909 145.942Z" fill="#337AB7"/>
</svg>
