<svg width="87" height="87" viewBox="0 0 87 87" fill="none" xmlns="http://www.w3.org/2000/svg">
<circle cx="43.5" cy="43.5" r="43.5" fill="white"/>
<path d="M46.4166 55.2041C48.1888 54.3583 49.9715 53.7235 51.7647 53.2998C53.5579 52.8761 55.4002 52.665 57.2916 52.6666C58.7416 52.6666 60.1618 52.7875 61.5522 53.0291C62.9426 53.2708 64.3419 53.6333 65.75 54.1166V30.1916C64.4208 29.6277 63.0409 29.2048 61.6102 28.9229C60.1795 28.6409 58.74 28.5 57.2916 28.5C55.3986 28.5 53.5257 28.7416 51.6729 29.225C49.8201 29.7083 48.068 30.4333 46.4166 31.4V55.2041ZM44 61.0646C43.4361 61.0646 42.902 60.9937 42.3977 60.8519C41.8934 60.7101 41.4206 60.5192 40.9791 60.2791C39.4083 59.3527 37.7569 58.6584 36.025 58.196C34.293 57.7336 32.5208 57.5016 30.7083 57.5C29.0166 57.5 27.3556 57.7215 25.7251 58.1646C24.0947 58.6076 22.5335 59.2319 21.0416 60.0375C20.1958 60.4805 19.3806 60.4604 18.596 59.9771C17.8113 59.4937 17.4182 58.7889 17.4166 57.8625V28.7416C17.4166 28.2986 17.5278 27.8757 17.7501 27.4729C17.9725 27.0701 18.3043 26.768 18.7458 26.5666C20.6388 25.6402 22.5827 24.9249 24.5772 24.4206C26.5718 23.9164 28.6155 23.665 30.7083 23.6666C33.0444 23.6666 35.3306 23.9687 37.5668 24.5729C39.803 25.1771 41.9474 26.0833 44 27.2916C46.0541 26.0833 48.1993 25.1771 50.4355 24.5729C52.6718 23.9687 54.9571 23.6666 57.2916 23.6666C59.3861 23.6666 61.4306 23.9188 63.4251 24.4231C65.4197 24.9273 67.3627 25.6419 69.2541 26.5666C69.6972 26.768 70.0299 27.0701 70.2522 27.4729C70.4745 27.8757 70.5849 28.2986 70.5833 28.7416V57.8625C70.5833 58.7889 70.191 59.4937 69.4064 59.9771C68.6218 60.4604 67.8057 60.4805 66.9583 60.0375C65.468 59.2319 63.9077 58.6076 62.2772 58.1646C60.6468 57.7215 58.9849 57.5 57.2916 57.5C55.4791 57.5 53.7069 57.732 51.975 58.196C50.243 58.66 48.5916 59.3544 47.0208 60.2791C46.5777 60.5208 46.1049 60.7125 45.6022 60.8543C45.0995 60.9961 44.5655 61.0662 44 61.0646ZM48.8333 35.2062C48.8333 34.8437 48.9646 34.4715 49.2272 34.0897C49.4898 33.7079 49.7814 33.4557 50.102 33.3333C51.2701 32.9305 52.4382 32.6284 53.6062 32.4271C54.7743 32.2257 56.0027 32.125 57.2916 32.125C58.0972 32.125 58.8931 32.1757 59.6793 32.2772C60.4655 32.3787 61.2405 32.5092 62.0041 32.6687C62.3666 32.7493 62.6792 32.9507 62.9418 33.2729C63.2044 33.5951 63.3349 33.9576 63.3333 34.3604C63.3333 35.0451 63.1118 35.5486 62.6687 35.8708C62.2257 36.193 61.6618 36.2736 60.977 36.1125C60.4132 35.9916 59.8195 35.9014 59.196 35.8418C58.5725 35.7822 57.9377 35.7516 57.2916 35.75C56.2444 35.75 55.2173 35.8507 54.2104 36.0521C53.2034 36.2534 52.2368 36.5152 51.3104 36.8375C50.5854 37.1194 49.9917 37.0993 49.5293 36.7771C49.0669 36.4548 48.8349 35.9312 48.8333 35.2062ZM48.8333 48.4979C48.8333 48.1354 48.9646 47.7632 49.2272 47.3814C49.4898 46.9995 49.7814 46.7474 50.102 46.625C51.2701 46.2222 52.4382 45.9201 53.6062 45.7187C54.7743 45.5173 56.0027 45.4166 57.2916 45.4166C58.0972 45.4166 58.8931 45.4674 59.6793 45.5689C60.4655 45.6704 61.2405 45.8009 62.0041 45.9604C62.3666 46.0409 62.6792 46.2423 62.9418 46.5646C63.2044 46.8868 63.3349 47.2493 63.3333 47.6521C63.3333 48.3368 63.1118 48.8402 62.6687 49.1625C62.2257 49.4847 61.6618 49.5652 60.977 49.4041C60.4132 49.2833 59.8195 49.1931 59.196 49.1335C58.5725 49.0739 57.9377 49.0432 57.2916 49.0416C56.2444 49.0416 55.2173 49.1327 54.2104 49.3147C53.2034 49.4968 52.2368 49.7481 51.3104 50.0687C50.5854 50.3507 49.9917 50.341 49.5293 50.0397C49.0669 49.7384 48.8349 49.2245 48.8333 48.4979ZM48.8333 41.8521C48.8333 41.4895 48.9646 41.1174 49.2272 40.7355C49.4898 40.3537 49.7814 40.1016 50.102 39.9791C51.2701 39.5764 52.4382 39.2743 53.6062 39.0729C54.7743 38.8715 56.0027 38.7708 57.2916 38.7708C58.0972 38.7708 58.8931 38.8216 59.6793 38.9231C60.4655 39.0246 61.2405 39.1551 62.0041 39.3146C62.3666 39.3951 62.6792 39.5965 62.9418 39.9187C63.2044 40.2409 63.3349 40.6034 63.3333 41.0062C63.3333 41.6909 63.1118 42.1944 62.6687 42.5166C62.2257 42.8389 61.6618 42.9194 60.977 42.7583C60.4132 42.6375 59.8195 42.5472 59.196 42.4876C58.5725 42.428 57.9377 42.3974 57.2916 42.3958C56.2444 42.3958 55.2173 42.4965 54.2104 42.6979C53.2034 42.8993 52.2368 43.1611 51.3104 43.4833C50.5854 43.7652 49.9917 43.7451 49.5293 43.4229C49.0669 43.1007 48.8349 42.5771 48.8333 41.8521Z" fill="#337AB7"/>
</svg>
