<svg width="360" height="360" viewBox="0 0 360 360" fill="none" xmlns="http://www.w3.org/2000/svg">
<circle cx="180" cy="180" r="180" fill="white"/>
<path d="M129.333 81C119.158 81 111 89.1583 111 99.3333V246C111 250.862 112.932 255.525 116.37 258.964C119.808 262.402 124.471 264.333 129.333 264.333H166V246.825L185.158 227.667H129.333V209.333H203.492L221.825 191H129.333V172.667H240.158L257.667 155.158V136L202.667 81H129.333ZM193.5 94.75L243.917 145.167H193.5V94.75ZM259.042 181.833C258.363 181.818 257.689 181.941 257.059 182.193C256.429 182.445 255.856 182.821 255.375 183.3L246.025 192.65L265.183 211.717L274.533 202.458C276.458 200.442 276.458 197.142 274.533 195.217L262.617 183.3C262.15 182.828 261.592 182.455 260.978 182.203C260.364 181.951 259.705 181.826 259.042 181.833ZM240.617 198.058L184.333 254.433V273.5H203.4L259.775 217.125L240.617 198.058Z" fill="#337AB7"/>
</svg>
