<svg width="360" height="360" viewBox="0 0 360 360" fill="none" xmlns="http://www.w3.org/2000/svg">
<circle cx="180" cy="180" r="180" fill="white"/>
<path fill-rule="evenodd" clip-rule="evenodd" d="M75.8195 98.6634C76.7897 97.228 78.0969 96.0524 79.6268 95.2394C81.1567 94.4264 82.8626 94.0009 84.5951 94H201.179C203.297 94.0013 205.366 94.6371 207.119 95.8254C208.872 97.0136 210.229 98.6998 211.015 100.667L218.974 120.549L222.578 102.521C223.058 100.118 224.357 97.955 226.253 96.4013C228.148 94.8476 230.524 93.999 232.975 94H275.369C276.937 94.0009 278.484 94.3495 279.901 95.0207C281.317 95.6918 282.567 96.6688 283.561 97.8812C284.554 99.0936 285.266 100.511 285.646 102.032C286.026 103.553 286.063 105.139 285.756 106.676L275.369 158.651V242.38C275.369 248.002 273.136 253.393 269.161 257.369C265.186 261.344 259.794 263.577 254.172 263.577H116.391C110.769 263.577 105.377 261.344 101.402 257.369C97.4269 253.393 95.1936 248.002 95.1936 242.38V159.637L74.7596 108.52C74.1158 106.912 73.8757 105.171 74.0605 103.449C74.2453 101.727 74.8492 100.077 75.8195 98.6422V98.6634ZM116.391 168.19V242.38H211.778V168.19H116.391ZM232.975 168.19V242.38H254.172V168.19H232.975ZM256.08 146.993L262.439 115.197H241.666L235.307 146.993H256.08ZM206.722 146.993L194.004 115.197H100.249L112.967 146.993H206.722ZM169.384 221.183C169.384 218.372 170.5 215.676 172.488 213.688C174.475 211.701 177.171 210.584 179.982 210.584H190.581C193.392 210.584 196.087 211.701 198.075 213.688C200.063 215.676 201.179 218.372 201.179 221.183C201.179 223.994 200.063 226.69 198.075 228.677C196.087 230.665 193.392 231.781 190.581 231.781H179.982C177.171 231.781 174.475 230.665 172.488 228.677C170.5 226.69 169.384 223.994 169.384 221.183Z" fill="#337AB7"/>
</svg>
