<svg width="360" height="360" viewBox="0 0 360 360" fill="none" xmlns="http://www.w3.org/2000/svg">
<circle cx="180" cy="180" r="180" fill="white"/>
<path d="M246.262 205.828C227.683 205.635 217.32 207.508 197.601 215.563L193.774 206.187C214.667 197.657 226.366 195.495 246.363 195.703L246.262 205.828ZM197.601 195.313C217.32 187.264 227.688 185.385 246.262 185.578L246.363 175.453C226.366 175.245 214.672 177.407 193.774 185.937L197.601 195.313ZM246.262 165.328C227.683 165.135 217.32 167.008 197.601 175.063L193.774 165.687C214.667 157.157 226.366 154.995 246.363 155.203L246.262 165.328ZM233.656 140V124.812H243.781V140H233.656ZM215.938 129.875V145.062H226.063V129.875H215.938ZM198.219 150.125V134.938H208.344V150.125H198.219ZM114.738 205.828C133.318 205.635 143.681 207.508 163.399 215.563L167.226 206.187C146.333 197.657 134.634 195.495 114.637 195.703L114.738 205.828ZM163.399 195.313C143.681 187.264 133.318 185.385 114.738 185.578L114.637 175.453C134.634 175.245 146.328 177.407 167.226 185.937L163.399 195.313ZM114.738 165.328C133.318 165.135 143.681 167.008 163.399 175.063L167.226 165.687C146.333 157.157 134.634 154.995 114.637 155.203L114.738 165.328ZM127.344 140V124.812H117.219V140H127.344ZM145.063 129.875V145.062H134.938V129.875H145.063ZM162.781 150.125V134.938H152.656V150.125H162.781Z" fill="#337AB7"/>
<path fill-rule="evenodd" clip-rule="evenodd" d="M271.625 114.606C273.68 115.059 275.778 115.543 277.918 116.059C279.013 116.325 279.986 116.951 280.682 117.837C281.377 118.723 281.753 119.818 281.75 120.945V250.236C281.75 253.44 278.799 255.83 275.655 255.233C244.201 249.234 223.005 248.813 194.037 253.208C192.767 255.706 190.829 257.804 188.44 259.269C186.051 260.734 183.303 261.51 180.5 261.51C177.697 261.51 174.949 260.734 172.56 259.269C170.171 257.804 168.234 255.706 166.963 253.208C138 248.813 116.794 249.234 85.3453 255.233C84.6064 255.377 83.8446 255.357 83.1145 255.173C82.3844 254.989 81.7038 254.646 81.1215 254.169C80.5393 253.692 80.0696 253.092 79.7461 252.412C79.4225 251.732 79.2532 250.989 79.25 250.236V120.95C79.2457 119.822 79.6216 118.726 80.317 117.839C81.0124 116.952 81.9866 116.325 83.0823 116.059C85.2221 115.543 87.3197 115.059 89.375 114.606V112.278C89.375 107.797 92.3569 103.702 96.8878 102.558C128.022 94.7311 150.692 103.023 176.658 115.098C177.923 115.357 179.204 115.627 180.5 115.908C181.796 115.627 183.079 115.357 184.348 115.098C210.308 103.023 232.978 94.7311 264.112 102.563C266.269 103.112 268.18 104.366 269.541 106.127C270.903 107.887 271.636 110.052 271.625 112.278V114.606ZM261.5 230.963V112.344C232.856 105.18 212.48 113.027 185.563 125.709V243.371L185.578 243.381L185.588 243.386L185.633 243.401H185.649L185.679 243.391C210.531 232.143 232.208 225.759 261.227 231.054C261.268 231.062 261.311 231.061 261.351 231.051C261.392 231.042 261.431 231.024 261.465 230.998L261.5 230.963ZM175.422 243.381L175.438 243.371V125.709C148.52 113.032 128.144 105.18 99.5 112.344V230.963L99.5355 230.998C99.5693 231.025 99.6085 231.044 99.6504 231.055C99.6923 231.065 99.736 231.067 99.7785 231.059C128.787 225.759 150.469 232.143 175.321 243.386L175.362 243.401L175.422 243.381Z" fill="#337AB7"/>
</svg>
