<svg width="360" height="360" viewBox="0 0 360 360" fill="none" xmlns="http://www.w3.org/2000/svg">
<circle cx="180" cy="180" r="180" fill="white"/>
<path d="M288.087 156.207L285.639 153.759C287.223 150.468 287.766 146.773 287.196 143.165C286.626 139.558 284.97 136.21 282.449 133.568C280.731 131.853 278.666 130.526 276.393 129.675C274.119 128.825 271.69 128.471 269.268 128.638C266.992 128.767 264.757 129.298 262.667 130.208V89H104V270.333H262.667V178.647L280.177 161.137L281.673 162.627C281.869 162.822 282.025 163.054 282.131 163.309C282.237 163.564 282.292 163.838 282.292 164.114C282.292 164.391 282.237 164.665 282.131 164.92C282.025 165.175 281.869 165.407 281.673 165.602L268.339 178.941C267.488 179.791 267.01 180.944 267.01 182.147C267.009 183.349 267.486 184.503 268.336 185.353C269.186 186.204 270.339 186.682 271.542 186.683C272.744 186.683 273.897 186.206 274.748 185.356L288.087 172.017C290.181 169.919 291.357 167.076 291.357 164.112C291.357 161.148 290.181 158.305 288.087 156.207ZM138 124.133H228.678V133.2H138V124.133ZM138 146.8H228.678V155.867H138V146.8ZM138 169.467H197.5V178.533H138V169.467ZM221.821 247.077H177.599C172.487 247.077 167.705 246.596 165.166 242.408C162.565 238.13 165.149 233.16 167.036 229.522C167.37 228.882 166.628 228.088 165.778 228.967C163.285 231.528 159.318 236.141 156.128 239.847C152.756 243.768 151.419 245.304 150.705 245.95C149.949 246.827 148.923 247.428 147.788 247.658C146.654 247.888 145.475 247.733 144.437 247.219C143.507 246.68 142.778 245.852 142.361 244.861C141.945 243.87 141.864 242.77 142.131 241.728C142.369 240.311 146.415 224.547 150.081 210.374C145.208 219.027 129.738 244.941 129.013 246.159C128.473 247.063 127.597 247.716 126.576 247.974C125.555 248.231 124.474 248.073 123.57 247.533C122.666 246.994 122.013 246.117 121.756 245.097C121.498 244.076 121.656 242.995 122.196 242.091C122.394 241.768 141.774 209.292 144.216 204.577C145.013 202.693 146.494 201.181 148.362 200.347C150.231 199.512 152.346 199.418 154.28 200.084C156.027 200.794 157.439 202.139 158.233 203.849C159.027 205.558 159.143 207.506 158.559 209.298C156.519 217.163 154.439 225.232 152.835 231.511C155.425 228.519 158.134 225.448 160.089 223.436C161.594 221.628 163.65 220.363 165.942 219.834C168.234 219.305 170.637 219.541 172.782 220.506C174.117 221.183 175.186 222.287 175.819 223.643C176.452 225 176.612 226.529 176.273 227.986C175.73 229.791 174.992 231.531 174.074 233.177C172.561 236.322 173.281 239.138 177.599 239.138H221.816C222.868 239.138 223.877 239.556 224.621 240.3C225.364 241.044 225.782 242.053 225.782 243.105C225.782 244.157 225.364 245.166 224.621 245.91C223.877 246.654 222.868 247.072 221.816 247.072L221.821 247.077ZM210.029 218.461L195.273 222.354C195.058 222.413 194.831 222.414 194.616 222.356C194.401 222.299 194.205 222.184 194.049 222.025C193.889 221.87 193.773 221.674 193.714 221.459C193.656 221.243 193.656 221.016 193.715 220.801L197.477 206.073L234.821 168.73L247.287 181.197L210.029 218.461ZM275.003 153.481L253.696 174.788L241.23 162.321L262.536 141.014C264.442 139.056 267.006 137.873 269.733 137.694L270.243 137.677C271.313 137.657 272.377 137.85 273.371 138.246C274.366 138.642 275.271 139.233 276.034 139.983C277.672 141.916 278.482 144.417 278.289 146.944C278.096 149.47 276.916 151.819 275.003 153.481Z" fill="#337AB7"/>
</svg>
